<svg version="1.1" xmlns="http://www.w3.org/2000/svg" xmlns:xlink="http://www.w3.org/1999/xlink" width="1100" height="588"><defs/><g><text fill="#eeeeee" stroke="none" font-family="Arial" font-size="24px" font-style="normal" font-weight="normal" text-decoration="none" x="0" y="0">UNREGISTERED</text><text fill="#eeeeee" stroke="none" font-family="Arial" font-size="24px" font-style="normal" font-weight="normal" text-decoration="none" x="0" y="30">UNREGISTERED</text><text fill="#eeeeee" stroke="none" font-family="Arial" font-size="24px" font-style="normal" font-weight="normal" text-decoration="none" x="0" y="60">UNREGISTERED</text><text fill="#eeeeee" stroke="none" font-family="Arial" font-size="24px" font-style="normal" font-weight="normal" text-decoration="none" x="0" y="90">UNREGISTERED</text><text fill="#eeeeee" stroke="none" font-family="Arial" font-size="24px" font-style="normal" font-weight="normal" text-decoration="none" x="0" y="120">UNREGISTERED</text><text fill="#eeeeee" stroke="none" font-family="Arial" font-size="24px" font-style="normal" font-weight="normal" text-decoration="none" x="0" y="150">UNREGISTERED</text><text fill="#eeeeee" stroke="none" font-family="Arial" font-size="24px" font-style="normal" font-weight="normal" text-decoration="none" x="0" y="180">UNREGISTERED</text><text fill="#eeeeee" stroke="none" font-family="Arial" font-size="24px" font-style="normal" font-weight="normal" text-decoration="none" x="0" y="210">UNREGISTERED</text><text fill="#eeeeee" stroke="none" font-family="Arial" font-size="24px" font-style="normal" font-weight="normal" text-decoration="none" x="0" y="240">UNREGISTERED</text><text fill="#eeeeee" stroke="none" font-family="Arial" font-size="24px" font-style="normal" font-weight="normal" text-decoration="none" x="0" y="270">UNREGISTERED</text><text fill="#eeeeee" stroke="none" font-family="Arial" font-size="24px" font-style="normal" font-weight="normal" text-decoration="none" x="0" y="300">UNREGISTERED</text><text fill="#eeeeee" stroke="none" font-family="Arial" font-size="24px" font-style="normal" font-weight="normal" text-decoration="none" x="0" y="330">UNREGISTERED</text><text fill="#eeeeee" stroke="none" font-family="Arial" font-size="24px" font-style="normal" font-weight="normal" text-decoration="none" x="0" y="360">UNREGISTERED</text><text fill="#eeeeee" stroke="none" font-family="Arial" font-size="24px" font-style="normal" font-weight="normal" text-decoration="none" x="0" y="390">UNREGISTERED</text><text fill="#eeeeee" stroke="none" font-family="Arial" font-size="24px" font-style="normal" font-weight="normal" text-decoration="none" x="0" y="420">UNREGISTERED</text><text fill="#eeeeee" stroke="none" font-family="Arial" font-size="24px" font-style="normal" font-weight="normal" text-decoration="none" x="0" y="450">UNREGISTERED</text><text fill="#eeeeee" stroke="none" font-family="Arial" font-size="24px" font-style="normal" font-weight="normal" text-decoration="none" x="0" y="480">UNREGISTERED</text><text fill="#eeeeee" stroke="none" font-family="Arial" font-size="24px" font-style="normal" font-weight="normal" text-decoration="none" x="0" y="510">UNREGISTERED</text><text fill="#eeeeee" stroke="none" font-family="Arial" font-size="24px" font-style="normal" font-weight="normal" text-decoration="none" x="0" y="540">UNREGISTERED</text><text fill="#eeeeee" stroke="none" font-family="Arial" font-size="24px" font-style="normal" font-weight="normal" text-decoration="none" x="0" y="570">UNREGISTERED</text><text fill="#eeeeee" stroke="none" font-family="Arial" font-size="24px" font-style="normal" font-weight="normal" text-decoration="none" x="200" y="0">UNREGISTERED</text><text fill="#eeeeee" stroke="none" font-family="Arial" font-size="24px" font-style="normal" font-weight="normal" text-decoration="none" x="200" y="30">UNREGISTERED</text><text fill="#eeeeee" stroke="none" font-family="Arial" font-size="24px" font-style="normal" font-weight="normal" text-decoration="none" x="200" y="60">UNREGISTERED</text><text fill="#eeeeee" stroke="none" font-family="Arial" font-size="24px" font-style="normal" font-weight="normal" text-decoration="none" x="200" y="90">UNREGISTERED</text><text fill="#eeeeee" stroke="none" font-family="Arial" font-size="24px" font-style="normal" font-weight="normal" text-decoration="none" x="200" y="120">UNREGISTERED</text><text fill="#eeeeee" stroke="none" font-family="Arial" font-size="24px" font-style="normal" font-weight="normal" text-decoration="none" x="200" y="150">UNREGISTERED</text><text fill="#eeeeee" stroke="none" font-family="Arial" font-size="24px" font-style="normal" font-weight="normal" text-decoration="none" x="200" y="180">UNREGISTERED</text><text fill="#eeeeee" stroke="none" font-family="Arial" font-size="24px" font-style="normal" font-weight="normal" text-decoration="none" x="200" y="210">UNREGISTERED</text><text fill="#eeeeee" stroke="none" font-family="Arial" font-size="24px" font-style="normal" font-weight="normal" text-decoration="none" x="200" y="240">UNREGISTERED</text><text fill="#eeeeee" stroke="none" font-family="Arial" font-size="24px" font-style="normal" font-weight="normal" text-decoration="none" x="200" y="270">UNREGISTERED</text><text fill="#eeeeee" stroke="none" font-family="Arial" font-size="24px" font-style="normal" font-weight="normal" text-decoration="none" x="200" y="300">UNREGISTERED</text><text fill="#eeeeee" stroke="none" font-family="Arial" font-size="24px" font-style="normal" font-weight="normal" text-decoration="none" x="200" y="330">UNREGISTERED</text><text fill="#eeeeee" stroke="none" font-family="Arial" font-size="24px" font-style="normal" font-weight="normal" text-decoration="none" x="200" y="360">UNREGISTERED</text><text fill="#eeeeee" stroke="none" font-family="Arial" font-size="24px" font-style="normal" font-weight="normal" text-decoration="none" x="200" y="390">UNREGISTERED</text><text fill="#eeeeee" stroke="none" font-family="Arial" font-size="24px" font-style="normal" font-weight="normal" text-decoration="none" x="200" y="420">UNREGISTERED</text><text fill="#eeeeee" stroke="none" font-family="Arial" font-size="24px" font-style="normal" font-weight="normal" text-decoration="none" x="200" y="450">UNREGISTERED</text><text fill="#eeeeee" stroke="none" font-family="Arial" font-size="24px" font-style="normal" font-weight="normal" text-decoration="none" x="200" y="480">UNREGISTERED</text><text fill="#eeeeee" stroke="none" font-family="Arial" font-size="24px" font-style="normal" font-weight="normal" text-decoration="none" x="200" y="510">UNREGISTERED</text><text fill="#eeeeee" stroke="none" font-family="Arial" font-size="24px" font-style="normal" font-weight="normal" text-decoration="none" x="200" y="540">UNREGISTERED</text><text fill="#eeeeee" stroke="none" font-family="Arial" font-size="24px" font-style="normal" font-weight="normal" text-decoration="none" x="200" y="570">UNREGISTERED</text><text fill="#eeeeee" stroke="none" font-family="Arial" font-size="24px" font-style="normal" font-weight="normal" text-decoration="none" x="400" y="0">UNREGISTERED</text><text fill="#eeeeee" stroke="none" font-family="Arial" font-size="24px" font-style="normal" font-weight="normal" text-decoration="none" x="400" y="30">UNREGISTERED</text><text fill="#eeeeee" stroke="none" font-family="Arial" font-size="24px" font-style="normal" font-weight="normal" text-decoration="none" x="400" y="60">UNREGISTERED</text><text fill="#eeeeee" stroke="none" font-family="Arial" font-size="24px" font-style="normal" font-weight="normal" text-decoration="none" x="400" y="90">UNREGISTERED</text><text fill="#eeeeee" stroke="none" font-family="Arial" font-size="24px" font-style="normal" font-weight="normal" text-decoration="none" x="400" y="120">UNREGISTERED</text><text fill="#eeeeee" stroke="none" font-family="Arial" font-size="24px" font-style="normal" font-weight="normal" text-decoration="none" x="400" y="150">UNREGISTERED</text><text fill="#eeeeee" stroke="none" font-family="Arial" font-size="24px" font-style="normal" font-weight="normal" text-decoration="none" x="400" y="180">UNREGISTERED</text><text fill="#eeeeee" stroke="none" font-family="Arial" font-size="24px" font-style="normal" font-weight="normal" text-decoration="none" x="400" y="210">UNREGISTERED</text><text fill="#eeeeee" stroke="none" font-family="Arial" font-size="24px" font-style="normal" font-weight="normal" text-decoration="none" x="400" y="240">UNREGISTERED</text><text fill="#eeeeee" stroke="none" font-family="Arial" font-size="24px" font-style="normal" font-weight="normal" text-decoration="none" x="400" y="270">UNREGISTERED</text><text fill="#eeeeee" stroke="none" font-family="Arial" font-size="24px" font-style="normal" font-weight="normal" text-decoration="none" x="400" y="300">UNREGISTERED</text><text fill="#eeeeee" stroke="none" font-family="Arial" font-size="24px" font-style="normal" font-weight="normal" text-decoration="none" x="400" y="330">UNREGISTERED</text><text fill="#eeeeee" stroke="none" font-family="Arial" font-size="24px" font-style="normal" font-weight="normal" text-decoration="none" x="400" y="360">UNREGISTERED</text><text fill="#eeeeee" stroke="none" font-family="Arial" font-size="24px" font-style="normal" font-weight="normal" text-decoration="none" x="400" y="390">UNREGISTERED</text><text fill="#eeeeee" stroke="none" font-family="Arial" font-size="24px" font-style="normal" font-weight="normal" text-decoration="none" x="400" y="420">UNREGISTERED</text><text fill="#eeeeee" stroke="none" font-family="Arial" font-size="24px" font-style="normal" font-weight="normal" text-decoration="none" x="400" y="450">UNREGISTERED</text><text fill="#eeeeee" stroke="none" font-family="Arial" font-size="24px" font-style="normal" font-weight="normal" text-decoration="none" x="400" y="480">UNREGISTERED</text><text fill="#eeeeee" stroke="none" font-family="Arial" font-size="24px" font-style="normal" font-weight="normal" text-decoration="none" x="400" y="510">UNREGISTERED</text><text fill="#eeeeee" stroke="none" font-family="Arial" font-size="24px" font-style="normal" font-weight="normal" text-decoration="none" x="400" y="540">UNREGISTERED</text><text fill="#eeeeee" stroke="none" font-family="Arial" font-size="24px" font-style="normal" font-weight="normal" text-decoration="none" x="400" y="570">UNREGISTERED</text><text fill="#eeeeee" stroke="none" font-family="Arial" font-size="24px" font-style="normal" font-weight="normal" text-decoration="none" x="600" y="0">UNREGISTERED</text><text fill="#eeeeee" stroke="none" font-family="Arial" font-size="24px" font-style="normal" font-weight="normal" text-decoration="none" x="600" y="30">UNREGISTERED</text><text fill="#eeeeee" stroke="none" font-family="Arial" font-size="24px" font-style="normal" font-weight="normal" text-decoration="none" x="600" y="60">UNREGISTERED</text><text fill="#eeeeee" stroke="none" font-family="Arial" font-size="24px" font-style="normal" font-weight="normal" text-decoration="none" x="600" y="90">UNREGISTERED</text><text fill="#eeeeee" stroke="none" font-family="Arial" font-size="24px" font-style="normal" font-weight="normal" text-decoration="none" x="600" y="120">UNREGISTERED</text><text fill="#eeeeee" stroke="none" font-family="Arial" font-size="24px" font-style="normal" font-weight="normal" text-decoration="none" x="600" y="150">UNREGISTERED</text><text fill="#eeeeee" stroke="none" font-family="Arial" font-size="24px" font-style="normal" font-weight="normal" text-decoration="none" x="600" y="180">UNREGISTERED</text><text fill="#eeeeee" stroke="none" font-family="Arial" font-size="24px" font-style="normal" font-weight="normal" text-decoration="none" x="600" y="210">UNREGISTERED</text><text fill="#eeeeee" stroke="none" font-family="Arial" font-size="24px" font-style="normal" font-weight="normal" text-decoration="none" x="600" y="240">UNREGISTERED</text><text fill="#eeeeee" stroke="none" font-family="Arial" font-size="24px" font-style="normal" font-weight="normal" text-decoration="none" x="600" y="270">UNREGISTERED</text><text fill="#eeeeee" stroke="none" font-family="Arial" font-size="24px" font-style="normal" font-weight="normal" text-decoration="none" x="600" y="300">UNREGISTERED</text><text fill="#eeeeee" stroke="none" font-family="Arial" font-size="24px" font-style="normal" font-weight="normal" text-decoration="none" x="600" y="330">UNREGISTERED</text><text fill="#eeeeee" stroke="none" font-family="Arial" font-size="24px" font-style="normal" font-weight="normal" text-decoration="none" x="600" y="360">UNREGISTERED</text><text fill="#eeeeee" stroke="none" font-family="Arial" font-size="24px" font-style="normal" font-weight="normal" text-decoration="none" x="600" y="390">UNREGISTERED</text><text fill="#eeeeee" stroke="none" font-family="Arial" font-size="24px" font-style="normal" font-weight="normal" text-decoration="none" x="600" y="420">UNREGISTERED</text><text fill="#eeeeee" stroke="none" font-family="Arial" font-size="24px" font-style="normal" font-weight="normal" text-decoration="none" x="600" y="450">UNREGISTERED</text><text fill="#eeeeee" stroke="none" font-family="Arial" font-size="24px" font-style="normal" font-weight="normal" text-decoration="none" x="600" y="480">UNREGISTERED</text><text fill="#eeeeee" stroke="none" font-family="Arial" font-size="24px" font-style="normal" font-weight="normal" text-decoration="none" x="600" y="510">UNREGISTERED</text><text fill="#eeeeee" stroke="none" font-family="Arial" font-size="24px" font-style="normal" font-weight="normal" text-decoration="none" x="600" y="540">UNREGISTERED</text><text fill="#eeeeee" stroke="none" font-family="Arial" font-size="24px" font-style="normal" font-weight="normal" text-decoration="none" x="600" y="570">UNREGISTERED</text><text fill="#eeeeee" stroke="none" font-family="Arial" font-size="24px" font-style="normal" font-weight="normal" text-decoration="none" x="800" y="0">UNREGISTERED</text><text fill="#eeeeee" stroke="none" font-family="Arial" font-size="24px" font-style="normal" font-weight="normal" text-decoration="none" x="800" y="30">UNREGISTERED</text><text fill="#eeeeee" stroke="none" font-family="Arial" font-size="24px" font-style="normal" font-weight="normal" text-decoration="none" x="800" y="60">UNREGISTERED</text><text fill="#eeeeee" stroke="none" font-family="Arial" font-size="24px" font-style="normal" font-weight="normal" text-decoration="none" x="800" y="90">UNREGISTERED</text><text fill="#eeeeee" stroke="none" font-family="Arial" font-size="24px" font-style="normal" font-weight="normal" text-decoration="none" x="800" y="120">UNREGISTERED</text><text fill="#eeeeee" stroke="none" font-family="Arial" font-size="24px" font-style="normal" font-weight="normal" text-decoration="none" x="800" y="150">UNREGISTERED</text><text fill="#eeeeee" stroke="none" font-family="Arial" font-size="24px" font-style="normal" font-weight="normal" text-decoration="none" x="800" y="180">UNREGISTERED</text><text fill="#eeeeee" stroke="none" font-family="Arial" font-size="24px" font-style="normal" font-weight="normal" text-decoration="none" x="800" y="210">UNREGISTERED</text><text fill="#eeeeee" stroke="none" font-family="Arial" font-size="24px" font-style="normal" font-weight="normal" text-decoration="none" x="800" y="240">UNREGISTERED</text><text fill="#eeeeee" stroke="none" font-family="Arial" font-size="24px" font-style="normal" font-weight="normal" text-decoration="none" x="800" y="270">UNREGISTERED</text><text fill="#eeeeee" stroke="none" font-family="Arial" font-size="24px" font-style="normal" font-weight="normal" text-decoration="none" x="800" y="300">UNREGISTERED</text><text fill="#eeeeee" stroke="none" font-family="Arial" font-size="24px" font-style="normal" font-weight="normal" text-decoration="none" x="800" y="330">UNREGISTERED</text><text fill="#eeeeee" stroke="none" font-family="Arial" font-size="24px" font-style="normal" font-weight="normal" text-decoration="none" x="800" y="360">UNREGISTERED</text><text fill="#eeeeee" stroke="none" font-family="Arial" font-size="24px" font-style="normal" font-weight="normal" text-decoration="none" x="800" y="390">UNREGISTERED</text><text fill="#eeeeee" stroke="none" font-family="Arial" font-size="24px" font-style="normal" font-weight="normal" text-decoration="none" x="800" y="420">UNREGISTERED</text><text fill="#eeeeee" stroke="none" font-family="Arial" font-size="24px" font-style="normal" font-weight="normal" text-decoration="none" x="800" y="450">UNREGISTERED</text><text fill="#eeeeee" stroke="none" font-family="Arial" font-size="24px" font-style="normal" font-weight="normal" text-decoration="none" x="800" y="480">UNREGISTERED</text><text fill="#eeeeee" stroke="none" font-family="Arial" font-size="24px" font-style="normal" font-weight="normal" text-decoration="none" x="800" y="510">UNREGISTERED</text><text fill="#eeeeee" stroke="none" font-family="Arial" font-size="24px" font-style="normal" font-weight="normal" text-decoration="none" x="800" y="540">UNREGISTERED</text><text fill="#eeeeee" stroke="none" font-family="Arial" font-size="24px" font-style="normal" font-weight="normal" text-decoration="none" x="800" y="570">UNREGISTERED</text><text fill="#eeeeee" stroke="none" font-family="Arial" font-size="24px" font-style="normal" font-weight="normal" text-decoration="none" x="1000" y="0">UNREGISTERED</text><text fill="#eeeeee" stroke="none" font-family="Arial" font-size="24px" font-style="normal" font-weight="normal" text-decoration="none" x="1000" y="30">UNREGISTERED</text><text fill="#eeeeee" stroke="none" font-family="Arial" font-size="24px" font-style="normal" font-weight="normal" text-decoration="none" x="1000" y="60">UNREGISTERED</text><text fill="#eeeeee" stroke="none" font-family="Arial" font-size="24px" font-style="normal" font-weight="normal" text-decoration="none" x="1000" y="90">UNREGISTERED</text><text fill="#eeeeee" stroke="none" font-family="Arial" font-size="24px" font-style="normal" font-weight="normal" text-decoration="none" x="1000" y="120">UNREGISTERED</text><text fill="#eeeeee" stroke="none" font-family="Arial" font-size="24px" font-style="normal" font-weight="normal" text-decoration="none" x="1000" y="150">UNREGISTERED</text><text fill="#eeeeee" stroke="none" font-family="Arial" font-size="24px" font-style="normal" font-weight="normal" text-decoration="none" x="1000" y="180">UNREGISTERED</text><text fill="#eeeeee" stroke="none" font-family="Arial" font-size="24px" font-style="normal" font-weight="normal" text-decoration="none" x="1000" y="210">UNREGISTERED</text><text fill="#eeeeee" stroke="none" font-family="Arial" font-size="24px" font-style="normal" font-weight="normal" text-decoration="none" x="1000" y="240">UNREGISTERED</text><text fill="#eeeeee" stroke="none" font-family="Arial" font-size="24px" font-style="normal" font-weight="normal" text-decoration="none" x="1000" y="270">UNREGISTERED</text><text fill="#eeeeee" stroke="none" font-family="Arial" font-size="24px" font-style="normal" font-weight="normal" text-decoration="none" x="1000" y="300">UNREGISTERED</text><text fill="#eeeeee" stroke="none" font-family="Arial" font-size="24px" font-style="normal" font-weight="normal" text-decoration="none" x="1000" y="330">UNREGISTERED</text><text fill="#eeeeee" stroke="none" font-family="Arial" font-size="24px" font-style="normal" font-weight="normal" text-decoration="none" x="1000" y="360">UNREGISTERED</text><text fill="#eeeeee" stroke="none" font-family="Arial" font-size="24px" font-style="normal" font-weight="normal" text-decoration="none" x="1000" y="390">UNREGISTERED</text><text fill="#eeeeee" stroke="none" font-family="Arial" font-size="24px" font-style="normal" font-weight="normal" text-decoration="none" x="1000" y="420">UNREGISTERED</text><text fill="#eeeeee" stroke="none" font-family="Arial" font-size="24px" font-style="normal" font-weight="normal" text-decoration="none" x="1000" y="450">UNREGISTERED</text><text fill="#eeeeee" stroke="none" font-family="Arial" font-size="24px" font-style="normal" font-weight="normal" text-decoration="none" x="1000" y="480">UNREGISTERED</text><text fill="#eeeeee" stroke="none" font-family="Arial" font-size="24px" font-style="normal" font-weight="normal" text-decoration="none" x="1000" y="510">UNREGISTERED</text><text fill="#eeeeee" stroke="none" font-family="Arial" font-size="24px" font-style="normal" font-weight="normal" text-decoration="none" x="1000" y="540">UNREGISTERED</text><text fill="#eeeeee" stroke="none" font-family="Arial" font-size="24px" font-style="normal" font-weight="normal" text-decoration="none" x="1000" y="570">UNREGISTERED</text><g transform="translate(-86,-54) scale(1,1)"><rect fill="#ffffff" stroke="none" x="96" y="64" width="656" height="568"/></g><g transform="translate(-86,-54) scale(1,1)"><path fill="none" stroke="#000000" d="M 96 64 L 752 64 L 752 632 L 96 632 L 96 64 Z Z" stroke-miterlimit="10"/></g><g transform="translate(-86,-54) scale(1,1)"><rect fill="#ffffff" stroke="none" x="144" y="120" width="121.7470703125" height="39"/></g><g transform="translate(-86,-54) scale(1,1)"><path fill="none" stroke="#000000" d="M 144 120 L 265.7470703125 120 L 265.7470703125 159 L 144 159 L 144 120 Z Z" stroke-miterlimit="10"/></g><g transform="translate(-86,-54) scale(1,1)"><g><path fill="none" stroke="none"/><text fill="#000000" stroke="none" font-family="Arial" font-size="13px" font-style="normal" font-weight="normal" text-decoration="none" x="149" y="135">&lt;artfact&gt;&gt;</text></g></g><g transform="translate(-86,-54) scale(1,1)"><g><path fill="none" stroke="none"/><text fill="#000000" stroke="none" font-family="Arial" font-size="13px" font-style="normal" font-weight="normal" text-decoration="none" x="149" y="150">book_club_app.war</text></g></g><g transform="translate(-86,-54) scale(1,1)"><rect fill="#ffffff" stroke="none" x="296" y="296" width="100.03173828125" height="24"/></g><g transform="translate(-86,-54) scale(1,1)"><path fill="none" stroke="#000000" d="M 296 296 L 396.03173828125 296 L 396.03173828125 320 L 296 320 L 296 296 Z Z" stroke-miterlimit="10"/></g><g transform="translate(-86,-54) scale(1,1)"><g><path fill="none" stroke="none"/><text fill="#000000" stroke="none" font-family="Arial" font-size="13px" font-style="normal" font-weight="normal" text-decoration="none" x="301" y="311">web-tools-lib.jar</text></g></g><g transform="translate(-86,-54) scale(1,1)"><rect fill="#C0C0C0" stroke="none" x="535" y="279" width="160" height="47" opacity="0.2"/></g><g transform="translate(-86,-54) scale(1,1)"><rect fill="#ffffff" stroke="none" x="528" y="272" width="160" height="47"/></g><g transform="translate(-86,-54) scale(1,1)"><path fill="none" stroke="#000000" d="M 528 272 L 688 272 L 688 319 L 528 319 L 528 272 Z Z" stroke-miterlimit="10"/></g><g transform="translate(-86,-54) scale(1,1)"><rect fill="#ffffff" stroke="none" x="528" y="272" width="160" height="47"/></g><g transform="translate(-86,-54) scale(1,1)"><path fill="none" stroke="#000000" d="M 528 272 L 688 272 L 688 319 L 528 319 L 528 272 Z Z" stroke-miterlimit="10"/></g><g transform="translate(-86,-54) scale(1,1)"><path fill="none" stroke="#000000" d="M 528 297 L 688 297" stroke-miterlimit="10"/></g><g transform="translate(-86,-54) scale(1,1)"><g><path fill="none" stroke="none"/><text fill="#000000" stroke="none" font-family="Arial" font-size="13px" font-style="normal" font-weight="bold" text-decoration="none" x="571.89453125" y="290">Component</text><path fill="none" stroke="#000000" d="M 644.10546875 291.5 L 571.89453125 291.5" stroke-miterlimit="10"/></g></g><g transform="translate(-86,-54) scale(1,1)"><g><path fill="none" stroke="none"/><text fill="#000000" stroke="none" font-family="Arial" font-size="13px" font-style="normal" font-weight="normal" text-decoration="none" x="533" y="313">+user services</text></g></g><g transform="translate(-86,-54) scale(1,1)"><rect fill="#C0C0C0" stroke="none" x="519" y="95" width="167.919921875" height="47" opacity="0.2"/></g><g transform="translate(-86,-54) scale(1,1)"><rect fill="#ffffff" stroke="none" x="512" y="88" width="167.919921875" height="47"/></g><g transform="translate(-86,-54) scale(1,1)"><path fill="none" stroke="#000000" d="M 512 88 L 679.919921875 88 L 679.919921875 135 L 512 135 L 512 88 Z Z" stroke-miterlimit="10"/></g><g transform="translate(-86,-54) scale(1,1)"><rect fill="#ffffff" stroke="none" x="512" y="88" width="167.919921875" height="47"/></g><g transform="translate(-86,-54) scale(1,1)"><path fill="none" stroke="#000000" d="M 512 88 L 679.919921875 88 L 679.919921875 135 L 512 135 L 512 88 Z Z" stroke-miterlimit="10"/></g><g transform="translate(-86,-54) scale(1,1)"><path fill="none" stroke="#000000" d="M 512 113 L 679.919921875 113" stroke-miterlimit="10"/></g><g transform="translate(-86,-54) scale(1,1)"><g><path fill="none" stroke="none"/><text fill="#000000" stroke="none" font-family="Arial" font-size="13px" font-style="normal" font-weight="bold" text-decoration="none" x="516.5" y="106">Deployment Specification</text><path fill="none" stroke="#000000" d="M 675.419921875 107.5 L 516.5 107.5" stroke-miterlimit="10"/></g></g><g transform="translate(-86,-54) scale(1,1)"><g><path fill="none" stroke="none"/><text fill="#000000" stroke="none" font-family="Arial" font-size="13px" font-style="normal" font-weight="normal" text-decoration="none" x="517" y="129">+Web.xml</text></g></g><g transform="translate(-86,-54) scale(1,1)"><rect fill="#C0C0C0" stroke="none" x="161" y="479" width="174.28271484375" height="80" opacity="0.2"/></g><g transform="translate(-86,-54) scale(1,1)"><rect fill="#ffffff" stroke="none" x="154" y="472" width="174.28271484375" height="80"/></g><g transform="translate(-86,-54) scale(1,1)"><path fill="none" stroke="#000000" d="M 154 472 L 328.28271484375 472 L 328.28271484375 552 L 154 552 L 154 472 Z Z" stroke-miterlimit="10"/></g><g transform="translate(-86,-54) scale(1,1)"><rect fill="#ffffff" stroke="none" x="144" y="479" width="20" height="10"/></g><g transform="translate(-86,-54) scale(1,1)"><path fill="none" stroke="#000000" d="M 144 479 L 164 479 L 164 489 L 144 489 L 144 479 Z Z" stroke-miterlimit="10"/></g><g transform="translate(-86,-54) scale(1,1)"><rect fill="#ffffff" stroke="none" x="144" y="499" width="20" height="10"/></g><g transform="translate(-86,-54) scale(1,1)"><path fill="none" stroke="#000000" d="M 144 499 L 164 499 L 164 509 L 144 509 L 144 499 Z Z" stroke-miterlimit="10"/></g><g transform="translate(-86,-54) scale(1,1)"><g><path fill="none" stroke="none"/><text fill="#000000" stroke="none" font-family="Arial" font-size="13px" font-style="normal" font-weight="bold" text-decoration="none" x="168.5" y="490">Component Online Order</text><path fill="none" stroke="#000000" d="M 323.78271484375 491.5 L 168.5 491.5" stroke-miterlimit="10"/></g></g><g transform="translate(-86,-54) scale(1,1)"><rect fill="#C0C0C0" stroke="none" x="489" y="495" width="198" height="72" opacity="0.2"/></g><g transform="translate(-86,-54) scale(1,1)"><rect fill="#ffffff" stroke="none" x="482" y="488" width="198" height="72"/></g><g transform="translate(-86,-54) scale(1,1)"><path fill="none" stroke="#000000" d="M 482 488 L 680 488 L 680 560 L 482 560 L 482 488 Z Z" stroke-miterlimit="10"/></g><g transform="translate(-86,-54) scale(1,1)"><rect fill="#ffffff" stroke="none" x="472" y="495" width="20" height="10"/></g><g transform="translate(-86,-54) scale(1,1)"><path fill="none" stroke="#000000" d="M 472 495 L 492 495 L 492 505 L 472 505 L 472 495 Z Z" stroke-miterlimit="10"/></g><g transform="translate(-86,-54) scale(1,1)"><rect fill="#ffffff" stroke="none" x="472" y="515" width="20" height="10"/></g><g transform="translate(-86,-54) scale(1,1)"><path fill="none" stroke="#000000" d="M 472 515 L 492 515 L 492 525 L 472 525 L 472 515 Z Z" stroke-miterlimit="10"/></g><g transform="translate(-86,-54) scale(1,1)"><g><path fill="none" stroke="none"/><text fill="#000000" stroke="none" font-family="Arial" font-size="13px" font-style="normal" font-weight="bold" text-decoration="none" x="505.083251953125" y="506">Component User Services</text><path fill="none" stroke="#000000" d="M 666.916748046875 507.5 L 505.083251953125 507.5" stroke-miterlimit="10"/></g></g><g transform="translate(-86,-54) scale(1,1)"><path fill="none" stroke="#000000" d="M 208 160 L 208 216" stroke-miterlimit="10"/></g><g transform="translate(-86,-54) scale(1,1)"><path fill="none" stroke="#000000" d="M 208 216 L 344 216" stroke-miterlimit="10"/></g><g transform="translate(-86,-54) scale(1,1)"><path fill="none" stroke="#000000" d="M 288 224 L 288 224" stroke-miterlimit="10"/></g><g transform="translate(-86,-54) scale(1,1)"><path fill="none" stroke="#000000" d="M 344 232 L 344 232" stroke-miterlimit="10"/></g><g transform="translate(-86,-54) scale(1,1)"><path fill="none" stroke="#000000" d="M 344 216 L 344 297" stroke-miterlimit="10"/></g><g transform="translate(-86,-54) scale(1,1)"><path fill="none" stroke="#000000" d="M 344 288 L 344 288" stroke-miterlimit="10"/></g><g transform="translate(-86,-54) scale(1,1)"><path fill="none" stroke="#000000" d="M 272 128 L 272 128" stroke-miterlimit="10"/></g><g transform="translate(-86,-54) scale(1,1)"><path fill="none" stroke="#000000" d="M 264 136 L 360 136" stroke-miterlimit="10"/></g><g transform="translate(-86,-54) scale(1,1)"><path fill="none" stroke="#000000" d="M 360 136 L 360 136" stroke-miterlimit="10"/></g><g transform="translate(-86,-54) scale(1,1)"><path fill="none" stroke="#000000" d="M 352 136 L 352 136" stroke-miterlimit="10"/></g><g transform="translate(-86,-54) scale(1,1)"><path fill="none" stroke="#000000" d="M 360 136 L 360 136" stroke-miterlimit="10"/></g><g transform="translate(-86,-54) scale(1,1)"><path fill="none" stroke="#000000" d="M 352 136 L 352 136" stroke-miterlimit="10"/></g><g transform="translate(-86,-54) scale(1,1)"><path fill="none" stroke="#000000" d="M 360 136 L 360 96" stroke-miterlimit="10"/></g><g transform="translate(-86,-54) scale(1,1)"><path fill="none" stroke="#000000" d="M 360 96 L 360 96" stroke-miterlimit="10"/></g><g transform="translate(-86,-54) scale(1,1)"><path fill="none" stroke="#000000" d="M 360 96 L 510 100" stroke-miterlimit="10"/></g><g transform="translate(-86,-54) scale(1,1)"><path fill="none" stroke="#000000" d="M 264 144 L 264 144" stroke-miterlimit="10"/></g><g transform="translate(-86,-54) scale(1,1)"><path fill="none" stroke="#000000" d="M 288 160 L 288 160" stroke-miterlimit="10"/></g><g transform="translate(-86,-54) scale(1,1)"><path fill="none" stroke="#000000" d="M 264 144 L 264 144" stroke-miterlimit="10"/></g><g transform="translate(-86,-54) scale(1,1)"><path fill="none" stroke="#000000" d="M 264 144 L 264 144" stroke-miterlimit="10"/></g><g transform="translate(-86,-54) scale(1,1)"><path fill="none" stroke="#000000" d="M 264 144 L 264 144" stroke-miterlimit="10"/></g><g transform="translate(-86,-54) scale(1,1)"><path fill="none" stroke="#000000" d="M 264 152 L 448 152" stroke-miterlimit="10"/></g><g transform="translate(-86,-54) scale(1,1)"><path fill="none" stroke="#000000" d="M 448 152 L 448 152" stroke-miterlimit="10"/></g><g transform="translate(-86,-54) scale(1,1)"><path fill="none" stroke="#000000" d="M 440 168 L 440 168" stroke-miterlimit="10"/></g><g transform="translate(-86,-54) scale(1,1)"><path fill="none" stroke="#000000" d="M 448 160 L 448 160" stroke-miterlimit="10"/></g><g transform="translate(-86,-54) scale(1,1)"><path fill="none" stroke="#000000" d="M 448 152 L 448 288" stroke-miterlimit="10"/></g><g transform="translate(-86,-54) scale(1,1)"><path fill="none" stroke="#000000" d="M 448 288 L 528 289" stroke-miterlimit="10"/></g><g transform="translate(-86,-54) scale(1,1)"><path fill="none" stroke="#000000" d="M 152 152 L 152 152" stroke-miterlimit="10"/></g><g transform="translate(-86,-54) scale(1,1)"><path fill="none" stroke="#000000" d="M 152 168 L 152 168" stroke-miterlimit="10"/></g><g transform="translate(-86,-54) scale(1,1)"><path fill="none" stroke="#000000" d="M 152 160 L 152 352" stroke-miterlimit="10"/></g><g transform="translate(-86,-54) scale(1,1)"><path fill="none" stroke="#000000" d="M 152 352 L 152 352" stroke-miterlimit="10"/></g><g transform="translate(-86,-54) scale(1,1)"><path fill="none" stroke="#000000" d="M 144 352 L 144 352" stroke-miterlimit="10"/></g><g transform="translate(-86,-54) scale(1,1)"><path fill="none" stroke="#000000" d="M 152 352 L 241 353" stroke-miterlimit="10"/></g><g transform="translate(-86,-54) scale(1,1)"><path fill="none" stroke="#000000" d="M 232 360 L 232 360" stroke-miterlimit="10"/></g><g transform="translate(-86,-54) scale(1,1)"><path fill="none" stroke="#000000" d="M 240 352 L 242 472" stroke-miterlimit="10"/></g><g transform="translate(-86,-54) scale(1,1)"><path fill="none" stroke="#000000" d="M 584 320 L 584 392" stroke-miterlimit="10"/></g><g transform="translate(-86,-54) scale(1,1)"><path fill="none" stroke="#000000" d="M 584 392 L 609 392" stroke-miterlimit="10"/></g><g transform="translate(-86,-54) scale(1,1)"><path fill="none" stroke="#000000" d="M 608 392 L 609 487" stroke-miterlimit="10"/></g><g transform="translate(-86,-54) scale(1,1)"><path fill="#C0C0C0" stroke="none" d="M 1047 337 L 1172 337 L 1172 438 L 1047 438" opacity="0.2"/></g><g transform="translate(-86,-54) scale(1,1)"><path fill="#C0C0C0" stroke="none" d="M 1047 337 L 1057 327 L 1182 327 L 1172 337" opacity="0.2"/></g><g transform="translate(-86,-54) scale(1,1)"><path fill="#C0C0C0" stroke="none" d="M 1182 327 L 1172 337 L 1172 438 L 1182 428" opacity="0.2"/></g><g transform="translate(-86,-54) scale(1,1)"><path fill="#ffffff" stroke="none" d="M 1040 330 L 1165 330 L 1165 431 L 1040 431"/></g><g transform="translate(-86,-54) scale(1,1)"><path fill="#ffffff" stroke="none" d="M 1040 330 L 1050 320 L 1175 320 L 1165 330"/></g><g transform="translate(-86,-54) scale(1,1)"><path fill="#ffffff" stroke="none" d="M 1175 320 L 1165 330 L 1165 431 L 1175 421"/></g><g transform="translate(-86,-54) scale(1,1)"><path fill="none" stroke="#000000" d="M 1040 330 L 1165 330 L 1165 431 L 1040 431 L 1040 330" stroke-miterlimit="10"/></g><g transform="translate(-86,-54) scale(1,1)"><path fill="none" stroke="#000000" d="M 1040 330 L 1050 320 L 1175 320 L 1165 330 L 1040 330" stroke-miterlimit="10"/></g><g transform="translate(-86,-54) scale(1,1)"><path fill="none" stroke="#000000" d="M 1175 320 L 1165 330 L 1165 431 L 1175 421 L 1175 320" stroke-miterlimit="10"/></g><g transform="translate(-86,-54) scale(1,1)"><path fill="none" stroke="#000000" d="M 1040 355 L 1166 355" stroke-miterlimit="10"/></g><g transform="translate(-86,-54) scale(1,1)"><g><path fill="none" stroke="none"/><text fill="#000000" stroke="none" font-family="Arial" font-size="13px" font-style="normal" font-weight="bold" text-decoration="none" x="1082.0400390625" y="348">Device</text></g></g><g transform="translate(-86,-54) scale(1,1)"><g><path fill="none" stroke="none"/><text fill="#000000" stroke="none" font-family="Arial" font-size="13px" font-style="normal" font-weight="normal" text-decoration="none" x="1045" y="370">+user</text></g></g><g transform="translate(-86,-54) scale(1,1)"><g><path fill="none" stroke="none"/><text fill="#000000" stroke="none" font-family="Arial" font-size="13px" font-style="normal" font-weight="normal" text-decoration="none" x="1045" y="386">+Orders</text></g></g><g transform="translate(-86,-54) scale(1,1)"><g><path fill="none" stroke="none"/><text fill="#000000" stroke="none" font-family="Arial" font-size="13px" font-style="normal" font-weight="normal" text-decoration="none" x="1045" y="401">+Inventory</text></g></g><g transform="translate(-86,-54) scale(1,1)"><path fill="none" stroke="#000000" d="M 744 360 L 744 360" stroke-miterlimit="10"/></g><g transform="translate(-86,-54) scale(1,1)"><path fill="none" stroke="#000000" d="M 752 392 L 1039 386" stroke-miterlimit="10"/></g><g transform="translate(-86,-54) scale(1,1)"><path fill="none" stroke="#000000" d="M 1064 400 L 1064 400" stroke-miterlimit="10"/></g></g></svg>